<svg xmlns="http://www.w3.org/2000/svg" width="512" height="512" viewBox="0 0 512 512" version="1.1">
	<path d="M 257.395 19.098 C 242.549 20.466, 235.055 23.613, 228.549 31.213 C 224.938 35.433, 224.914 35.442, 216.215 36.138 C 184.010 38.716, 150.456 67.027, 134.351 105.212 C 128.152 119.910, 125.885 130.625, 125.295 148 C 124.397 174.476, 127.970 189.039, 144.634 226.809 C 150.899 241.010, 159.542 265.766, 160.526 272.327 L 161.200 276.819 154.350 277.475 C 132.885 279.529, 123.498 281.709, 112.720 287.144 C 101.902 292.599, 99.195 295.987, 91.448 313.756 C 89.330 318.617, 87.648 320.784, 83.912 323.467 C 78.943 327.038, 78.901 327.124, 76.057 339.414 C 75.431 342.117, 73.500 346.392, 71.764 348.914 C 61.867 363.296, 59.990 366.373, 59.049 369.764 C 58.478 371.819, 58.009 374.657, 58.006 376.071 C 57.999 379.178, 51.270 384.828, 33.704 396.474 C 20.552 405.193, 12.086 413.609, 7.149 422.872 C 3.444 429.823, 3.077 431.905, 5.915 429.872 C 6.968 429.117, 11.606 425.916, 16.222 422.758 C 20.838 419.600, 27.845 414.106, 31.793 410.550 C 36.217 406.566, 40.417 403.699, 42.736 403.079 C 58.561 398.851, 64.599 397.853, 77.500 397.331 C 90.107 396.822, 92.147 396.981, 98 398.934 C 116.804 405.209, 148.532 430.769, 168.213 455.500 C 172.590 461, 177.082 466.287, 178.196 467.250 C 180.702 469.415, 190.705 469.668, 193.483 467.636 C 195.281 466.322, 195.248 466.099, 192.592 461.566 C 181.256 442.224, 145.051 407.396, 123.403 395.010 C 104.383 384.128, 89.907 381.010, 74.068 384.385 C 61.263 387.113, 63.668 385.196, 80 379.656 C 97.199 373.821, 109.500 372.571, 117.208 375.875 C 125.723 379.525, 149.099 394.160, 159.230 402.184 C 172.002 412.299, 201.320 441.640, 210.003 452.996 C 213.577 457.669, 218.135 463.181, 220.132 465.246 C 223.541 468.769, 224.136 469, 229.801 469 C 237.095 469, 239 468.366, 239 465.939 C 239 464.286, 226.957 448.614, 212.254 431.134 C 209.309 427.632, 207.147 424.520, 207.450 424.217 C 207.752 423.914, 213.738 427.181, 220.750 431.476 C 241.566 444.227, 256.701 452.963, 263.815 456.333 C 270.496 459.498, 270.511 459.500, 287.294 459.500 L 304.088 459.500 304.679 461.856 C 305.004 463.151, 304.974 467.764, 304.612 472.106 L 303.953 480 312.810 480 C 317.681 480, 321.919 479.748, 322.227 479.440 C 322.535 479.132, 322.165 476.544, 321.405 473.690 C 320.646 470.835, 320.018 466.192, 320.012 463.370 L 320 458.240 325.750 457.807 C 333.008 457.260, 337.056 455.307, 345.093 448.474 C 348.617 445.479, 351.798 443.021, 352.162 443.014 C 352.876 442.999, 353.538 446.811, 354.576 456.913 C 355.070 461.729, 355.816 463.907, 357.572 465.663 C 360.329 468.420, 366.034 468.823, 368.429 466.429 C 370.475 464.382, 370.411 461.600, 368.015 448.419 C 366.924 442.414, 366.024 436.712, 366.015 435.750 C 365.981 431.860, 368.367 434.436, 371.803 442 C 373.802 446.400, 375.731 450, 376.089 450 C 377.214 450, 375.277 441.853, 372.001 432.809 L 368.853 424.117 371.177 420.968 L 373.500 417.818 377.359 422.159 C 384.628 430.336, 389.178 442.849, 390.604 458.583 C 391.210 465.272, 391.575 466.305, 393.669 467.259 C 395.243 467.976, 397.304 468.031, 399.773 467.421 C 403.222 466.569, 403.543 466.176, 404.078 462.166 C 404.682 457.639, 403.690 441.937, 402.433 436.136 C 401.757 433.014, 401.845 432.847, 403.666 433.821 C 409.759 437.082, 417.080 443.967, 423.518 452.490 C 433.238 465.359, 439.882 470.077, 441.681 465.389 C 442.453 463.376, 440.601 460.138, 431.397 447.407 C 423.515 436.504, 422.255 435.371, 408.127 426.482 C 402.971 423.238, 396.671 418.738, 394.127 416.483 C 391.582 414.227, 387.700 411.318, 385.500 410.017 C 383.300 408.717, 381.336 407.530, 381.136 407.379 C 380.936 407.228, 381.714 405.580, 382.866 403.716 C 385.254 399.853, 392.217 393.133, 402.750 384.526 C 406.738 381.267, 410 378.252, 410 377.826 C 410 377.400, 408.704 376.381, 407.121 375.563 C 402.575 373.212, 393.683 364.629, 380.404 349.774 L 368.129 336.043 369.924 329.766 C 370.911 326.313, 372.047 319.996, 372.446 315.728 C 373.048 309.307, 374.027 306.222, 378.119 297.855 C 380.839 292.293, 383.946 284.559, 385.024 280.670 C 386.102 276.780, 388.494 271.323, 390.340 268.543 C 398.043 256.942, 398.722 252.957, 395.207 239.975 C 394.094 235.864, 392.643 228.176, 391.982 222.890 C 390.648 212.224, 390.694 212.038, 396.659 204.224 C 401.367 198.055, 404 192.653, 404 189.159 C 404 187.552, 402.789 183.147, 401.308 179.369 C 399.014 173.516, 398.607 170.946, 398.558 162 C 398.497 151.026, 400.053 144, 402.543 144 C 405.107 144, 410.729 149.943, 412.868 154.916 C 416.382 163.084, 417.472 173.654, 416.102 186.285 C 415.448 192.314, 415.116 197.449, 415.364 197.697 C 416.223 198.556, 424.832 181.468, 427.052 174.500 C 428.719 169.267, 429.401 164.183, 429.753 154.359 C 430.522 132.955, 426.702 119.092, 416.652 106.817 C 414.094 103.692, 412 100.697, 412 100.162 C 412 99.627, 415.055 96.924, 418.789 94.156 C 422.524 91.388, 426.365 88.255, 427.325 87.193 C 429.006 85.336, 428.984 85.280, 426.728 85.712 C 425.438 85.958, 420.810 85.672, 416.442 85.075 L 408.500 83.991 400.119 74.949 C 385.804 59.506, 363.890 44.565, 341.402 34.916 C 322.015 26.597, 297.681 20.485, 279.810 19.445 C 274.690 19.147, 269.375 18.779, 268 18.628 C 266.625 18.476, 261.853 18.688, 257.395 19.098 M 253.850 32.915 C 250.742 33.909, 246.751 35.753, 244.981 37.014 C 241.225 39.688, 236.411 46.897, 234.807 52.250 C 233.591 56.307, 232.876 56.761, 231.091 54.610 C 230.456 53.845, 227.605 52.216, 224.755 50.990 C 220.701 49.246, 218.353 48.872, 213.963 49.270 C 197.988 50.718, 177.243 64.939, 162.842 84.314 C 157.105 92.032, 148.181 108.515, 149.192 109.526 C 149.479 109.812, 153.893 105.301, 159 99.500 C 164.107 93.699, 168.499 89.165, 168.758 89.425 C 169.017 89.684, 167.870 93.182, 166.207 97.198 C 161.655 108.195, 155.996 128, 157.406 128 C 157.717 128, 159.285 125.412, 160.892 122.250 C 162.498 119.088, 165.132 114.691, 166.745 112.481 C 170.341 107.554, 181.139 95.806, 181.626 96.292 C 181.820 96.487, 179.937 102.688, 177.441 110.073 C 172.414 124.946, 166.684 146.017, 167.456 146.789 C 167.729 147.063, 168.253 146.434, 168.620 145.393 C 172.669 133.902, 175.882 127.078, 180.814 119.500 C 188.086 108.323, 195.252 99.256, 195.714 100.643 C 195.906 101.219, 194.723 105.039, 193.084 109.131 C 189.756 117.442, 185 134.864, 185 138.744 C 185 140.607, 185.910 139.465, 188.474 134.384 C 190.385 130.598, 194.548 124.088, 197.724 119.918 C 205.004 110.363, 216.717 97.384, 217.423 98.090 C 217.718 98.384, 215.702 103.997, 212.943 110.563 C 204.302 131.129, 195.852 158.538, 203.310 141.811 C 207.808 131.723, 210.817 126.682, 217.954 117.275 C 224.043 109.251, 242 90.774, 242 92.534 C 242 93.080, 240.494 95.771, 238.654 98.513 C 235.256 103.577, 218.903 133.046, 217.713 136.250 C 216.614 139.207, 217.562 138.233, 221.386 132.474 C 226.280 125.104, 237.081 113.850, 249.411 103.276 C 254.960 98.518, 261.413 92.816, 263.750 90.604 C 275.508 79.481, 260.714 100.179, 246.154 115.224 C 243.107 118.372, 240.816 121.149, 241.062 121.396 C 241.480 121.813, 252.047 113.538, 262.497 104.609 C 265.001 102.469, 267.255 100.922, 267.505 101.172 C 267.755 101.422, 265.098 105.204, 261.599 109.576 C 253.891 119.211, 243.012 128.109, 233.250 132.764 C 229.262 134.666, 226 136.391, 226 136.596 C 226 137.315, 236.543 132.844, 242 129.811 C 255.212 122.469, 267.222 111.658, 274.737 100.341 C 279.668 92.914, 279.144 91.582, 269 85.768 C 259.104 80.096, 254.375 75.780, 249.264 67.757 C 246.534 63.474, 244.354 61.359, 240.883 59.629 L 236.190 57.291 238.053 53.130 C 241.153 46.206, 246.254 46.262, 250.652 53.269 C 257.827 64.700, 260.788 68.558, 264.384 71.164 C 266.538 72.724, 268.688 74, 269.163 74 C 269.637 74, 268.439 70.850, 266.500 67 C 264.561 63.150, 263.263 60, 263.616 60 C 263.968 60, 267.314 62.884, 271.051 66.409 C 279.826 74.687, 287.339 79.077, 311.631 90.116 C 335.462 100.947, 336.852 101.475, 326.500 95.768 C 315.303 89.596, 311.602 87.196, 294 74.695 C 271.188 58.493, 269.323 56.457, 281.437 60.977 C 289.068 63.823, 297.615 68.567, 301.945 72.359 C 305.416 75.398, 298.775 66.851, 292.934 60.761 C 290.422 58.142, 288.971 56, 289.709 56 C 290.447 56, 299.027 60.125, 308.775 65.167 C 363.060 93.241, 369.929 96.001, 387 96.591 L 397.500 96.954 389.351 95.507 C 375.087 92.973, 365.057 88.431, 344 74.974 C 338.225 71.283, 327.308 64.984, 319.740 60.975 C 312.172 56.966, 306.163 53.503, 306.386 53.280 C 306.610 53.057, 309.427 53.350, 312.646 53.932 C 315.866 54.514, 323.666 55.670, 329.981 56.501 C 336.295 57.332, 342.370 58.233, 343.481 58.504 C 344.591 58.775, 342.724 57.685, 339.330 56.080 C 335.937 54.476, 330.650 51.558, 327.581 49.595 C 303.603 34.256, 272.005 27.108, 253.850 32.915 M 289.609 102.165 C 287.385 109.712, 284.059 117.689, 280.790 123.320 C 275.668 132.141, 263.176 148.706, 256.449 155.596 C 251.577 160.587, 251.362 161, 253.644 161 L 256.115 161 253.308 166.027 C 251.763 168.792, 248.548 173.629, 246.162 176.777 L 241.824 182.500 242.399 193 C 243.017 204.302, 241.662 212.797, 238.126 219.781 C 237.091 221.827, 235.934 225.075, 235.555 227 C 234.642 231.641, 228.742 247, 227.872 247 C 227.496 247, 225.814 244.188, 224.134 240.750 C 222.453 237.313, 220.181 232.925, 219.083 231 C 217.985 229.075, 215.290 223.675, 213.095 219 C 210.899 214.325, 206.717 207.414, 203.801 203.642 C 199.281 197.794, 197.616 196.431, 192.500 194.396 C 184.360 191.158, 179.519 191.285, 173.840 194.887 C 166.813 199.343, 164.660 204.672, 165.170 216.342 C 165.523 224.420, 166.027 226.524, 169.210 233.226 C 175.934 247.385, 185.894 259.824, 193.335 263.354 C 198.587 265.847, 205.007 265.484, 209.490 262.443 C 211.562 261.036, 213.827 260.103, 214.522 260.370 C 216.122 260.984, 219.985 269.125, 224.382 281.148 C 229.659 295.574, 233.995 305.264, 236.353 307.899 C 239.071 310.936, 254.575 318.369, 282.141 329.850 C 294.020 334.798, 307.510 340.773, 312.119 343.128 C 320.311 347.312, 320.760 347.418, 332.026 347.803 C 355.582 348.609, 359.547 344.688, 363.453 316.722 C 364.706 307.753, 365.790 304.143, 369.906 295.222 C 372.627 289.325, 375.824 281.258, 377.010 277.296 C 378.238 273.194, 380.841 267.755, 383.057 264.661 C 389.015 256.339, 389.753 252.223, 387.027 242.500 C 385.794 238.100, 384.458 230.049, 384.059 224.608 C 383.171 212.509, 382.382 211.579, 373.634 212.328 C 370.408 212.605, 367.320 213.280, 366.772 213.828 C 365.335 215.265, 372.167 235.118, 376.640 242.500 C 380.286 248.516, 381.779 254.760, 380.649 259.263 C 380.320 260.574, 378.418 263.785, 376.422 266.399 C 373.859 269.755, 372.387 273.092, 371.411 277.754 C 370.652 281.385, 368.851 286.138, 367.410 288.315 C 365.866 290.649, 364.482 294.547, 364.039 297.811 C 363.515 301.674, 362.629 303.882, 361.112 305.110 C 357.930 307.687, 348.661 309.295, 339.913 308.789 C 330.871 308.265, 322.613 304.739, 307.488 294.941 C 300.248 290.251, 298 288.274, 298 286.597 C 298 282.573, 299.730 282.015, 305.765 284.091 C 312.024 286.245, 321.928 286.492, 343.500 285.035 C 359.861 283.930, 362.262 283.106, 364.309 277.896 L 365.880 273.895 361.581 274.540 C 358.274 275.036, 356.336 274.702, 353.181 273.092 C 350.061 271.501, 347.215 270.999, 341.290 270.996 C 332.064 270.992, 327.701 268.922, 325.423 263.470 C 323.756 259.481, 324.307 256.121, 327.123 253.099 C 329.272 250.792, 329.872 250.632, 331.801 251.856 C 332.834 252.511, 332.857 253.220, 331.909 255.300 C 330.925 257.461, 331.007 258.362, 332.381 260.459 C 333.954 262.860, 334.529 263, 342.788 263 C 349.714 263, 352.331 263.429, 355.387 265.067 C 360.706 267.918, 366.259 266.941, 370.854 262.346 C 373.839 259.361, 374.193 258.474, 373.741 255.105 C 373.458 252.993, 371.367 248.183, 369.096 244.417 C 365.334 238.180, 357 215.450, 357 211.427 C 357 210.514, 358.517 207.683, 360.371 205.134 C 362.224 202.585, 364.462 199.084, 365.343 197.352 C 366.260 195.551, 370.273 191.872, 374.723 188.753 C 379 185.755, 384.249 181.365, 386.386 178.998 L 390.272 174.694 389.638 166.597 C 388.695 154.549, 385.330 132.818, 383.932 129.750 C 382.984 127.670, 380.879 126.368, 374.604 123.983 C 370.147 122.289, 363.880 119.349, 360.678 117.451 C 357.476 115.553, 354.638 114, 354.372 114 C 354.105 114, 355.045 115.912, 356.461 118.250 C 360.613 125.103, 368.350 140.983, 367.804 141.530 C 367.221 142.112, 352.604 134.174, 346 129.689 C 343.525 128.008, 337.345 123.309, 332.268 119.247 C 323.387 112.143, 322.950 111.922, 320.795 113.431 C 317.650 115.634, 311.187 115.382, 306.485 112.874 C 304.293 111.705, 299.688 108.517, 296.251 105.789 C 292.074 102.474, 289.872 101.272, 289.609 102.165 M 409.556 124.831 C 413.706 127.623, 416.457 130.417, 418.295 133.703 C 420.931 138.415, 420.967 138.438, 420.346 135 C 419.299 129.197, 417.275 126.308, 412.777 124.195 C 404.834 120.462, 403.466 120.732, 409.556 124.831 M 282.500 182.556 C 267.983 192.420, 265.895 194.021, 266.427 194.881 C 266.716 195.350, 271.351 194.640, 276.727 193.303 C 284.669 191.328, 288.031 190.978, 294.669 191.436 C 303.358 192.035, 324.134 197.497, 330.948 200.973 C 335.479 203.285, 338.073 203.527, 339.800 201.800 C 341.372 200.228, 341.341 195.508, 339.750 194.279 C 336.746 191.959, 295.614 176.967, 292.508 177.060 C 291.404 177.093, 286.900 179.566, 282.500 182.556 M 386.340 190.618 C 375.586 196.319, 375.256 196.638, 379.338 197.404 C 381.229 197.758, 383.912 199.184, 385.300 200.573 L 387.824 203.097 390.287 199.798 C 394.833 193.708, 396.317 188.932, 394.090 187.555 C 393.589 187.246, 390.102 188.624, 386.340 190.618 M 177.420 199.829 C 172.596 202.859, 170.523 208.162, 170.510 217.500 C 170.502 224.182, 170.945 226.406, 173.202 231 C 175.752 236.191, 183.675 245.658, 184.652 244.682 C 184.900 244.434, 183.768 242.126, 182.136 239.554 C 178.254 233.432, 176.635 226.349, 177.227 218.078 C 178.190 204.608, 185.658 201.025, 191.729 211.119 C 193.199 213.563, 193.153 214.052, 191.055 218.386 C 185.916 229.003, 187.441 234.693, 196.979 240.487 C 203.256 244.300, 206.557 244.678, 208.368 241.789 C 209.251 240.380, 208.604 239.278, 204.697 235.534 L 199.954 230.990 200.577 223.245 C 201.157 216.038, 201.002 215.126, 198.350 210.108 C 193.018 200.019, 184.095 195.637, 177.420 199.829 M 304.236 203.013 C 296.468 205.049, 282.864 211.684, 282.222 213.750 C 281.662 215.552, 284.848 215.252, 289.710 213.045 L 293.920 211.134 295.474 214.249 C 297.071 217.449, 296.367 218.947, 293.250 218.985 C 292.563 218.993, 292 219.450, 292 220 C 292 221.295, 292.954 221.261, 297.097 219.816 C 298.964 219.165, 303.194 218.152, 306.496 217.564 C 311.990 216.585, 312.527 216.261, 312.816 213.747 C 313.208 210.349, 313.999 210.305, 317.016 213.517 C 319.245 215.890, 326.459 218.875, 327.485 217.849 C 328.371 216.962, 326.067 205.751, 324.509 203.373 C 323.163 201.320, 322.183 201.007, 317.227 201.055 C 314.077 201.085, 308.231 201.967, 304.236 203.013 M 368.500 205 C 368.160 205.550, 368.610 206, 369.500 206 C 370.390 206, 370.840 205.550, 370.500 205 C 370.160 204.450, 369.710 204, 369.500 204 C 369.290 204, 368.840 204.450, 368.500 205 M 378.705 206.750 C 378.037 210.225, 378.611 210.817, 380.661 208.768 C 381.548 207.881, 382.001 206.445, 381.668 205.578 C 380.732 203.138, 379.289 203.709, 378.705 206.750 M 301.597 209.844 C 301.251 210.404, 301.455 211.163, 302.050 211.531 C 303.588 212.481, 304.580 211.180, 303.296 209.896 C 302.578 209.178, 302.019 209.161, 301.597 209.844 M 201.363 271.691 C 199.529 272.050, 199.068 273.198, 198.103 279.805 C 196.386 291.558, 192.398 298.814, 184.448 304.651 C 180.885 307.268, 178.120 309.859, 178.304 310.411 C 178.488 310.963, 182.657 314.302, 187.569 317.832 C 215.657 338.016, 249.454 370.940, 269.825 397.963 C 276.170 406.379, 296.677 436.874, 300.161 443.073 C 303.773 449.499, 305.916 448.302, 309.253 438 C 312.695 427.372, 313.143 422.195, 310.753 420.646 C 309.466 419.812, 308.538 419.808, 307.221 420.630 C 304.402 422.390, 299.282 423.221, 295.871 422.472 L 292.742 421.784 293.443 412.142 C 294.327 399.980, 296.169 390.491, 299.437 381.269 C 303.404 370.076, 303.184 369.116, 294.586 360.091 C 289.554 354.808, 286.776 350.985, 285.939 348.189 C 284.222 342.461, 282.076 340.797, 269.500 335.445 C 245.398 325.188, 232.457 318.466, 229.598 314.718 C 226.697 310.913, 219.651 295.583, 214.936 282.815 C 210.416 270.573, 209.770 270.044, 201.363 271.691 M 295.898 273.270 C 289.052 277.843, 287.527 285.549, 291.649 294.730 L 293.343 298.500 294.073 291.500 C 295.027 282.347, 295.926 280.272, 301.131 275.220 L 305.479 271 302.388 271 C 300.687 271, 297.767 272.021, 295.898 273.270 M 147.760 292.558 C 139.233 294.624, 134.473 297.452, 130.985 302.522 C 126.801 308.603, 126.171 312.923, 128.839 317.240 C 132.718 323.516, 143.580 332.779, 158.566 342.590 C 187.893 361.791, 217.796 384.224, 234.605 399.633 C 241.705 406.142, 245.773 408.960, 253.079 412.432 C 258.232 414.881, 262.621 416.712, 262.832 416.501 C 263.439 415.894, 256.160 404.200, 250.210 396.223 C 227.083 365.216, 179.467 323.289, 153.201 310.804 C 147.537 308.112, 142.642 305.232, 142.325 304.404 C 142.003 303.564, 142.765 301.814, 144.048 300.449 C 146.641 297.689, 152.280 297.156, 157.958 299.135 C 161.815 300.480, 162.961 299.366, 162.985 294.250 C 163 291.026, 162.962 291.001, 158.250 291.083 C 155.637 291.129, 150.917 291.793, 147.760 292.558 M 340 292.053 C 332.575 292.444, 325.150 292.831, 323.500 292.914 C 320.610 293.058, 320.573 293.119, 322.486 294.564 C 325.892 297.139, 336.930 300, 343.456 300 C 351.476 300, 355.838 298.492, 356.600 295.457 C 357.271 292.785, 356.440 290.920, 354.691 291.171 C 354.036 291.266, 347.425 291.663, 340 292.053 M 99.610 321.532 C 93.976 334.659, 93.947 334.478, 102.767 341.500 C 105.530 343.700, 108.298 346.298, 108.918 347.273 C 109.988 348.956, 109.853 348.964, 106.273 347.439 C 91.624 341.202, 92.990 341.036, 88.773 349.565 C 87.396 352.350, 84.183 357.462, 81.634 360.925 C 79.085 364.387, 77 367.556, 77 367.967 C 77 368.377, 81.162 367.836, 86.250 366.764 C 93.288 365.281, 98.011 364.925, 106 365.275 C 118.493 365.824, 130.237 369.415, 157.500 381.023 C 187.026 393.594, 213.235 404.098, 213.762 403.572 C 214.670 402.663, 200.806 389.642, 188 379.376 C 172.457 366.915, 164.874 361.342, 144 347.035 C 124.586 333.729, 114.770 325.283, 109.440 317.300 C 107.310 314.110, 105.328 311.194, 105.034 310.820 C 104.740 310.446, 102.300 315.267, 99.610 321.532 M 327.675 374.151 C 328.035 377.640, 327.512 382.978, 326.173 389.500 C 325.043 395, 323.836 404, 323.489 409.500 C 323.142 415, 322.013 422.425, 320.979 426 C 319.945 429.575, 318.806 434.525, 318.449 437 L 317.799 441.500 323.506 433.117 C 326.645 428.506, 329.859 423.188, 330.649 421.299 C 333.032 415.595, 337 394.173, 337 387.013 C 337 381.209, 336.614 379.772, 334.146 376.400 C 332.577 374.255, 330.355 371.668, 329.208 370.651 L 327.124 368.802 327.675 374.151 M 306.381 454.238 C 306.722 455.482, 307.288 458.217, 307.639 460.315 L 308.276 464.129 312.388 463.450 C 314.650 463.077, 316.572 462.710, 316.659 462.636 C 316.747 462.561, 316.576 460.363, 316.279 457.750 C 315.792 453.455, 315.489 452.993, 313.120 452.926 C 311.679 452.885, 309.434 452.654, 308.130 452.414 C 306.080 452.035, 305.844 452.281, 306.381 454.238 M 307.667 468.667 C 306.082 470.251, 307.294 471, 311.441 471 C 316.010 471, 318.205 469.676, 315.412 468.605 C 313.306 467.796, 308.499 467.835, 307.667 468.667" stroke="none" fill="black" fill-rule="evenodd"/>
</svg>